<?xml version="1.0" encoding="UTF-8"?>
<!-- Generator: visioncortex VTracer 0.6.12 -->
<svg version="1.1" xmlns="http://www.w3.org/2000/svg" width="431" height="430">
<path d="M0 0 C0.557 0.411 1.113 0.823 1.687 1.247 C8.232 6.085 14.442 11.022 20 17 C20.784 17.784 21.567 18.567 22.375 19.375 C23.241 20.241 24.108 21.108 25 22 C25.3 22.271 25.3 22.271 26.816 23.641 C52.095 47.289 67.599 81.853 75.188 115.125 C75.343 115.805 75.498 116.484 75.657 117.184 C78.439 130.057 79.408 142.687 79.375 155.812 C79.375 156.216 79.375 156.216 79.373 158.26 C79.252 197.809 67.487 236.888 44 269 C43.278 270.005 42.556 271.011 41.812 272.047 C23.477 296.775 0.345 315.996 -27 330 C-27.629 330.327 -28.259 330.654 -28.907 330.991 C-43.229 338.352 -59.207 343.849 -75 347 C-76.265 347.277 -77.529 347.554 -78.832 347.84 C-104.262 352.842 -132.848 351.712 -158 346 C-158.802 345.823 -159.603 345.647 -160.429 345.465 C-178.889 341.263 -196.672 333.497 -213 324 C-213.456 323.736 -213.456 323.736 -215.762 322.402 C-221.688 318.797 -227.222 314.681 -232.75 310.5 C-233.459 309.966 -234.169 309.432 -234.9 308.882 C-239.077 305.674 -242.865 302.29 -246.515 298.492 C-248 297 -248 297 -250.5 295.062 C-254.117 292.078 -256.981 288.576 -260 285 C-260.766 284.122 -261.531 283.244 -262.32 282.34 C-268.919 274.655 -274.594 266.56 -280 258 C-280.628 257.014 -281.256 256.028 -281.902 255.012 C-294.647 234.117 -301.514 210.884 -306 187 C-306.067 186.649 -306.067 186.649 -306.407 184.871 C-314.766 138.985 -302.075 89.146 -276.938 50.5 C-275.645 48.652 -274.332 46.819 -273 45 C-272.243 43.96 -271.487 42.919 -270.707 41.848 C-264.678 33.717 -257.985 26.314 -251 19 C-250.398 18.345 -249.796 17.69 -249.176 17.016 C-235.799 2.864 -218.098 -7.978 -201 -17 C-199.989 -17.534 -198.979 -18.067 -197.938 -18.617 C-181.024 -26.939 -162.545 -32 -144 -35 C-142.73 -35.224 -141.461 -35.449 -140.152 -35.68 C-91.68 -43.121 -39.078 -29.436 0 0 Z M-228 39 C-233 44 -233 44 -234.734 45.594 C-241.17 51.669 -246.123 58.668 -251 66 C-251.388 66.581 -251.777 67.163 -252.177 67.762 C-275.282 102.883 -283.367 147.406 -275.505 188.571 C-270.344 213.398 -259.782 237.096 -244 257 C-243.544 257.576 -243.088 258.151 -242.618 258.744 C-231.521 272.56 -218.842 284.312 -204 294 C-203.7 294.196 -203.7 294.196 -202.184 295.187 C-165.806 318.643 -121.168 326.042 -79 317 C-55.486 311.57 -34.117 301.724 -15 287 C-14.069 286.294 -13.139 285.587 -12.18 284.859 C22.571 257.504 43.552 217.634 49 174 C52.19 140.403 45.772 106.479 29 77 C28.363 75.876 27.726 74.752 27.07 73.594 C17.501 57.452 4.866 41.599 -10 30 C-10.507 29.602 -11.014 29.205 -11.536 28.795 C-73.877 -19.666 -171.871 -21.351 -228 39 Z " fill="#000000" transform="translate(330,59)"/>
<path d="M0 0 C6.712 9.229 5.321 23.629 5.261 34.613 C5.25 36.932 5.261 39.25 5.273 41.568 C5.303 67.954 5.303 67.954 0 75 C-14.601 79.867 -33.065 76.97 -48.264 76.2 C-51.024 76.061 -53.783 75.93 -56.543 75.799 C-58.32 75.711 -60.098 75.624 -61.875 75.535 C-62.689 75.497 -63.502 75.458 -64.341 75.418 C-64.727 75.398 -64.727 75.398 -66.68 75.297 C-67.013 75.28 -67.013 75.28 -68.703 75.196 C-71.816 74.93 -74.907 74.442 -78 74 C-78 49.91 -78 25.82 -78 1 C-12.373 -4.707 -12.373 -4.707 0 0 Z " fill="#B30101" transform="translate(334,180)"/>
<path d="M0 0 C13.308 -0.468 26.625 0.348 39.913 1.034 C40.763 1.077 41.613 1.12 42.488 1.165 C44.933 1.292 47.378 1.425 49.823 1.561 C50.559 1.6 51.294 1.638 52.052 1.678 C55.783 1.894 59.162 2.359 62.851 3.096 C62.851 27.186 62.851 51.276 62.851 76.096 C33.633 78.434 33.633 78.434 22.262 78.729 C20.186 78.785 18.11 78.855 16.034 78.926 C-9.056 79.7 -9.056 79.7 -16.149 76.096 C-25.551 59.836 -21.876 26.713 -18.149 9.096 C-17.389 6.431 -16.535 4.568 -15.149 2.096 C-10.552 -0.085 -5.04 0.226 0 0 Z " fill="#7CB545" transform="translate(112.1494140625,177.90380859375)"/>
<path d="M0 0 C24.09 0 48.18 0 73 0 C75.306 27.668 75.306 27.668 75.266 36.887 C75.268 37.929 75.269 38.97 75.271 40.044 C75.273 42.186 75.269 44.329 75.261 46.471 C75.25 49.752 75.261 53.033 75.273 56.314 C75.272 58.422 75.27 60.529 75.266 62.637 C75.27 63.607 75.274 64.578 75.278 65.578 C75.217 74.335 75.217 74.335 73 78 C54.365 88.034 22.904 84.112 2.59 80.012 C0 79 0 79 -1.124 77.19 C-3.87 70.329 -3.193 62.018 -3.188 54.75 C-3.187 53.663 -3.187 52.575 -3.187 51.455 C-3.119 40.976 -2.624 30.525 -2.062 20.062 C-2.019 19.236 -1.976 18.409 -1.931 17.557 C-1.805 15.195 -1.671 12.834 -1.535 10.473 C-1.497 9.761 -1.458 9.05 -1.418 8.317 C-1.237 5.332 -0.951 2.854 0 0 Z " fill="#F7C72E" transform="translate(179,256)"/>
<path d="M0 0 C3.65 2.087 6.85 4.432 10.125 7.062 C37.585 27.75 72.793 35.936 106.719 31.305 C128.35 27.805 148.403 19.436 165.914 6.297 C168.87 4.097 171.934 2.044 175 0 C180.61 5.61 186.22 11.22 192 17 C170.241 38.759 141.104 51.222 111 56 C110.452 56.088 110.452 56.088 107.68 56.533 C90.187 58.754 70.077 58.413 53 54 C52.214 53.801 51.429 53.603 50.62 53.398 C26.875 47.222 1.157 36.214 -16 18 C-14.642 14.957 -13.115 12.877 -10.742 10.547 C-10.117 9.928 -9.492 9.309 -8.848 8.672 C-8.197 8.038 -7.546 7.403 -6.875 6.75 C-6.216 6.1 -5.558 5.451 -4.879 4.781 C-3.257 3.183 -1.631 1.589 0 0 Z " fill="#E87600" transform="translate(128,314)"/>
<path d="M0 0 C17.301 8.651 28.396 38.25 34.359 55.987 C39.289 71.477 41.399 86.965 41.312 103.188 C41.31 103.914 41.308 104.641 41.306 105.39 C41.253 116.52 40.698 127.17 38 138 C37.817 138.791 37.635 139.583 37.446 140.398 C32.941 159.604 24.858 178.163 13 194 C12.699 194.411 12.699 194.411 11.176 196.488 C9.803 198.341 8.414 200.178 7 202 C1.875 201.105 -0.761 197.753 -4.312 194.188 C-4.642 193.873 -4.642 193.873 -6.307 192.279 C-6.923 191.665 -7.54 191.051 -8.176 190.418 C-8.459 190.138 -8.459 190.138 -9.892 188.723 C-11 187 -11 187 -10.784 184.956 C-9.614 182.036 -7.847 179.65 -6.062 177.062 C3.755 162.21 10.368 146.397 14 129 C14.244 127.946 14.487 126.891 14.738 125.805 C18.021 109.057 17.089 90.525 13 74 C12.839 73.321 12.678 72.642 12.512 71.942 C8.055 53.609 -0.324 37.787 -11.701 22.827 C-13.259 20.635 -14.616 18.306 -16 16 C-10.72 10.72 -5.44 5.44 0 0 Z " fill="#974B00" transform="translate(330,112)"/>
<path d="M0 0 C3.043 1.358 5.123 2.885 7.453 5.258 C7.763 5.57 7.763 5.57 9.328 7.152 C9.962 7.803 10.597 8.454 11.25 9.125 C11.575 9.454 11.575 9.454 13.219 11.121 C14.817 12.743 16.411 14.369 18 16 C16.173 19.818 13.813 23.101 11.312 26.5 C-9.629 55.632 -17.624 90.133 -12.398 125.622 C-8.718 147.611 0.749 167.194 14 185 C10.435 189.316 6.714 193.422 2.812 197.438 C1.973 198.302 1.134 199.167 0.27 200.059 C-2 202 -2 202 -5 202 C-6.862 199.705 -8.499 197.456 -10.125 195 C-10.609 194.279 -11.094 193.558 -11.593 192.815 C-35.767 156.325 -44.607 114.082 -36 71 C-30.085 44.314 -17.805 20.676 0 0 Z " fill="#64844B" transform="translate(99,112)"/>
<path d="M0 0 C-0.579 3.548 -1.827 5.184 -4.379 7.672 C-5.052 8.336 -5.726 9 -6.42 9.684 C-7.127 10.366 -7.834 11.047 -8.562 11.75 C-9.273 12.447 -9.984 13.145 -10.717 13.863 C-12.471 15.582 -14.232 17.294 -16 19 C-20.632 16.412 -25.038 13.661 -29.438 10.688 C-57.106 -7.397 -92.201 -12.852 -124.407 -6.527 C-144.089 -2.22 -163.338 6.159 -179 19 C-182.043 17.642 -184.123 16.115 -186.453 13.742 C-187.072 13.117 -187.691 12.492 -188.328 11.848 C-188.962 11.197 -189.597 10.546 -190.25 9.875 C-190.9 9.216 -191.549 8.558 -192.219 7.879 C-193.817 6.257 -195.411 4.631 -197 3 C-195.173 -1.055 -192.646 -3.117 -189.062 -5.625 C-188.756 -5.84 -188.756 -5.84 -187.204 -6.931 C-129.177 -46.601 -55.45 -40.927 0 0 Z " fill="#2D74A5" transform="translate(314,94)"/>
<path d="M0 0 C2.319 0.011 4.637 0 6.955 -0.013 C33.604 -0.042 33.604 -0.042 40.387 5.261 C41.407 8.203 41.513 10.955 41.516 14.051 C41.52 15 41.523 15.949 41.526 16.927 C41.525 17.438 41.525 17.438 41.52 20.026 C41.521 21.093 41.522 22.159 41.523 23.257 C41.523 25.52 41.522 27.783 41.517 30.046 C41.512 33.456 41.517 36.866 41.524 40.276 C41.538 74.066 41.538 74.066 38.387 79.261 C37.686 78.476 36.984 77.691 36.262 76.882 C30.918 70.945 25.551 65.359 19.387 60.261 C18.414 59.411 17.44 58.562 16.438 57.687 C15.38 56.773 14.321 55.861 13.262 54.948 C12.29 54.106 11.318 53.265 10.317 52.397 C7.271 50.176 5.107 48.896 1.387 48.261 C-1.035 49.499 -1.035 49.499 -3.363 51.573 C-4.229 52.33 -5.096 53.087 -5.988 53.866 C-6.854 54.656 -7.721 55.447 -8.613 56.261 C-9.397 56.938 -10.181 57.614 -10.988 58.312 C-18.554 64.92 -25.56 72.116 -32.613 79.261 C-33.273 78.931 -33.933 78.601 -34.613 78.261 C-36.806 43.911 -36.806 43.911 -36.863 27.136 C-36.872 26.073 -36.881 25.011 -36.89 23.916 C-36.838 10.266 -36.838 10.266 -34.613 5.261 C-25.765 -1.614 -10.741 -0.059 0 0 Z " fill="#54B3C7" transform="translate(212.613037109375,92.7392578125)"/>
<path d="M0 0 C19.261 -0.677 38.629 0.972 57.851 2.096 C57.851 2.756 57.851 3.416 57.851 4.096 C56.628 5.299 56.628 5.299 54.788 6.79 C47.753 12.779 41.366 19.458 34.851 25.999 C33.405 27.446 31.959 28.893 30.513 30.34 C26.73 34.128 22.949 37.918 19.17 41.708 C15.303 45.585 11.434 49.459 7.565 53.333 C-0.009 60.918 -7.58 68.506 -15.149 76.096 C-22.057 69.189 -20.279 52.336 -20.34 43.302 C-20.314 11.313 -20.314 11.313 -15.149 2.096 C-10.552 -0.085 -5.04 0.226 0 0 Z " fill="#A0C57B" transform="translate(112.1494140625,177.90380859375)"/>
<path d="M0 0 C5 0 5 0 6.703 1.398 C7.214 2.051 7.724 2.703 8.25 3.375 C8.843 4.105 9.436 4.834 10.047 5.586 C10.691 6.383 11.336 7.179 12 8 C13.49 9.675 14.991 11.342 16.5 13 C19.17 15.959 21.823 18.929 24.438 21.938 C28.091 26.133 31.845 30.234 35.594 34.344 C38.151 37.167 40.658 40.031 43.156 42.906 C45.409 45.464 47.703 47.982 50 50.5 C53.445 54.277 56.846 58.083 60.195 61.945 C63.175 65.338 66.23 68.664 69.277 71.996 C71 74 71 74 71 75 C57.459 77.211 43.373 75.891 29.736 75.2 C26.976 75.061 24.217 74.93 21.457 74.799 C19.68 74.711 17.902 74.624 16.125 74.535 C15.311 74.497 14.498 74.458 13.659 74.418 C13.273 74.398 13.273 74.398 11.32 74.297 C10.987 74.28 10.987 74.28 9.297 74.196 C6.184 73.93 3.093 73.442 0 73 C0 48.91 0 24.82 0 0 Z " fill="#9B0000" transform="translate(256,181)"/>
<path d="M0 0 C24.09 0 48.18 0 73 0 C75.299 27.583 75.299 27.583 75.195 36.406 C75.192 37.393 75.19 38.38 75.187 39.397 C75.176 42.432 75.151 45.466 75.125 48.5 C75.115 50.607 75.106 52.714 75.098 54.82 C75.076 59.88 75.042 64.94 75 70 C73.739 69.068 72.481 68.134 71.223 67.199 C70.521 66.679 69.82 66.159 69.098 65.623 C65.878 63.132 62.946 60.368 60 57.562 C58.776 56.411 57.55 55.26 56.324 54.109 C55.747 53.567 55.17 53.025 54.576 52.467 C52.1 50.162 49.549 47.948 46.988 45.738 C44.459 43.527 41.981 41.264 39.5 39 C35.711 35.544 31.889 32.135 28.02 28.77 C23.078 24.44 18.222 20.012 13.352 15.602 C12.493 14.826 11.635 14.05 10.75 13.25 C9.933 12.509 9.115 11.768 8.273 11.004 C6.356 9.313 4.401 7.743 2.375 6.188 C1.591 5.466 0.808 4.744 0 4 C0 2.68 0 1.36 0 0 Z " fill="#E98A2B" transform="translate(179,256)"/>
<path d="M0 0 C2 1 2 1 2.617 2.763 C3.026 5.15 3.127 7.369 3.129 9.79 C3.133 10.739 3.136 11.688 3.139 12.666 C3.138 13.178 3.138 13.178 3.133 15.766 C3.134 16.832 3.135 17.898 3.136 18.997 C3.136 21.259 3.135 23.522 3.13 25.785 C3.125 29.195 3.13 32.605 3.137 36.016 C3.151 69.805 3.151 69.805 0 75 C-0.701 74.215 -1.403 73.43 -2.125 72.621 C-7.469 66.684 -12.836 61.098 -19 56 C-19.973 55.151 -20.946 54.301 -21.949 53.426 C-23.007 52.513 -24.066 51.6 -25.125 50.688 C-26.097 49.846 -27.069 49.004 -28.07 48.137 C-31.116 45.915 -33.28 44.635 -37 44 C-39.422 45.238 -39.422 45.238 -41.75 47.312 C-42.616 48.069 -43.483 48.826 -44.375 49.605 C-45.241 50.396 -46.108 51.186 -47 52 C-47.784 52.677 -48.567 53.354 -49.375 54.051 C-56.941 60.659 -63.947 67.855 -71 75 C-71 72 -71 72 -69.91 70.543 C-69.395 70.032 -68.88 69.522 -68.349 68.995 C-67.762 68.405 -67.174 67.815 -66.569 67.207 C-66.242 66.886 -66.242 66.886 -64.59 65.265 C-64.25 64.925 -64.25 64.925 -62.526 63.205 C-60.265 60.951 -57.994 58.708 -55.723 56.465 C-54.155 54.905 -52.588 53.345 -51.022 51.784 C-46.89 47.67 -42.751 43.564 -38.609 39.461 C-31.98 32.891 -25.364 26.309 -18.748 19.726 C-16.43 17.422 -14.108 15.122 -11.786 12.822 C-10.37 11.417 -8.955 10.011 -7.539 8.605 C-7.214 8.284 -7.214 8.284 -5.567 6.658 C-1.113 2.227 -1.113 2.227 0 0 Z " fill="#32A4BD" transform="translate(251,97)"/>
<path d="M0 0 C0.345 0.004 0.345 0.004 2.09 0.023 C2.779 0.016 3.469 0.008 4.18 0 C9.337 0.02 9.337 0.02 11.59 2.273 C11.891 5.426 11.891 5.426 11.902 9.211 C11.919 10.457 11.936 11.704 11.953 12.988 C11.59 16.273 11.59 16.273 10.477 18.195 C7.662 19.804 5.305 19.633 2.09 19.586 C0.945 19.582 -0.2 19.578 -1.379 19.574 C-4.41 19.273 -4.41 19.273 -7.41 17.273 C-7.687 14.679 -7.783 12.361 -7.723 9.773 C-7.726 9.084 -7.729 8.394 -7.732 7.684 C-7.664 1.281 -6.395 0.025 0 0 Z " fill="#7CB545" transform="translate(200.41015625,193.7265625)"/>
<path d="M0 0 C5.61 0 11.22 0 17 0 C18.486 2.972 18.132 5.696 18.125 9 C18.126 9.629 18.126 9.629 18.133 12.812 C18 16 18 16 17 18 C11.39 18 5.78 18 0 18 C-1.486 15.028 -1.132 12.304 -1.125 9 C-1.128 7.742 -1.13 6.484 -1.133 5.188 C-1 2 -1 2 0 0 Z " fill="#F8C82F" transform="translate(194,219)"/>
<path d="M0 0 C0.698 0.004 1.396 0.008 2.115 0.012 C2.809 0.008 3.504 0.004 4.219 0 C9.424 0.01 9.424 0.01 11.678 1.137 C11.732 3.762 11.771 6.386 11.803 9.012 C11.819 9.758 11.836 10.504 11.854 11.273 C11.871 13.229 11.781 15.184 11.678 17.137 C9.678 19.137 9.678 19.137 6.49 19.367 C5.232 19.353 3.974 19.339 2.678 19.324 C1.42 19.318 0.161 19.311 -1.135 19.305 C-4.322 19.137 -4.322 19.137 -6.322 18.137 C-6.349 15.324 -6.369 12.512 -6.385 9.699 C-6.393 8.897 -6.402 8.094 -6.41 7.268 C-6.419 5.224 -6.375 3.18 -6.322 1.137 C-4.576 -0.61 -2.323 0.005 0 0 Z " fill="#32A4BD" transform="translate(226.322265625,193.86328125)"/>
<path d="M0 0 C0.375 0.002 0.375 0.002 2.273 0.012 C3.024 0.008 3.774 0.004 4.547 0 C10.147 0.01 10.147 0.01 11.273 1.137 C11.373 3.814 11.412 6.46 11.398 9.137 C11.4 9.512 11.4 9.512 11.41 11.41 C11.4 17.01 11.4 17.01 10.273 18.137 C7.411 18.21 4.573 18.229 1.711 18.199 C0.905 18.195 0.098 18.19 -0.732 18.186 C-2.731 18.174 -4.729 18.156 -6.727 18.137 C-6.753 15.324 -6.773 12.512 -6.789 9.699 C-6.797 8.897 -6.806 8.094 -6.814 7.268 C-6.823 5.224 -6.779 3.18 -6.727 1.137 C-4.905 -0.684 -2.42 0.004 0 0 Z " fill="#B40101" transform="translate(226.7265625,218.86328125)"/>
</svg>
